<?xml version="1.0" encoding="UTF-8"?>
<svg xmlns="http://www.w3.org/2000/svg" viewBox="0 0 1024 1024">
  <rect width="1024" height="1024" fill="#D58271"/>
  <g fill="#FFFEF4" transform="translate(179 379.3) scale(0.512)">
    <path d="M249.98,231.83c-5.37-3.47-40.23,48.74-44.58,55.2-9.1,13.49-17.42,26.73-27.45,39.4-7.23,9.14-17.01,15.71-28.39,16.86-13.46,1.37-24.98-5.22-29.81-17.53-2.61-6.67-3.89-13.52-4.18-20.9-.93-23.74,1.23-43.38.33-66.97-.06-1.54-1.26-2.9-2.05-3.31-4.76-2.51-10.38,14.6-12.11,19.08-12.67,32.61-22.7,65.49-32.82,98.96-2.58,8.54-5.67,15.89-11.33,22.49-11.97,13.96-32.87,16.79-47.01,4.5-17.5-15.22-9.46-44.23-3.04-64.07,15.94-49.3,52.41-147.27,79.37-189.25,11.39-17.72,31.67-26.76,52.26-21.85,13.84,3.3,23.7,13.76,28.43,26.93,4,11.13,5.07,22.3,5.86,34.14l3.31,49.52c.26,3.84,2.54,7.26,5.81,8.49,2.95,1.11,6.8-.33,9.53-2.96,25.75-24.84,72.99-91.28,98.92-106.68,14.69-8.73,33.61-8.85,46.55,2.83,9.35,8.43,11.86,21.77,9.14,34.13-3.61,16.38-8.98,31.37-14.43,47.45-17.82,52.61-32.83,105.17-45.39,159.25-2.24,9.66-7.54,17.88-14.98,23.84-12.42,9.95-30.85,9.14-42.42-1.58-7.19-6.66-9.86-16.2-9.45-25.98,1.19-28.22,21.85-89.74,31.08-118.67-.33-1.59-.3-2.75-1.16-3.31Z"/>
    <path d="M787.32,355.36c-.24,20.22-19.13,33.46-37.93,30.13-20.02-3.55-38.03-25.66-48.68-41.78-11.42-17.28-19.63-35.54-26.98-54.84-.71-1.87-2.42-3.25-3.85-3.29-5.71-.16-9.73,18.37-11.44,24.75l-13.29,49.62c-1.96,7.32-5.55,13.57-11.03,18.65-13.45,12.46-35.11,10.32-44.64-5.61-5.6-9.37-6.06-20.32-4.65-31.1,2.47-18.96,6.92-36.42,12.08-54.87,12.95-46.3,33.68-107.45,54.19-150.7,3.35-7.06,7.35-13.34,12.73-19,10.43-10.98,26.03-15.58,40.4-11.18,15.08,4.61,21.91,19.19,16.95,34.07-6.52,19.58-21.67,47.48-26.53,63.4-.55,1.79-.22,3.49.98,4.63.89.85,2.79.53,4.29-.7,16.22-13.32,30.26-28.12,44.56-43.56l37.49-40.47c5.26-5.68,10.6-10.76,17.37-14.43,13.38-7.25,30.01-3.31,37.54,10.03,5.26,9.31,4.15,20.33-.97,29.6-17.85,32.31-72.59,75.17-102.96,97.45-5.59,4.1-7.36,9.53-5.08,16.03,9.3,26.46,25.56,48.99,46.47,67.68,7.23,6.46,13.11,14.84,12.98,25.5Z"/>
    <path d="M1157.66,427.87c.09,18.92,12.36,25.86,14.24,46.9,1.9,21.36-12.28,39.77-33.56,42.79-13.7,1.94-26.88-1.95-36.72-11.39-9.19-8.82-14.29-21.64-13.25-35.34.98-12.95,6.8-24.19,14.68-34.32,6.71-8.62,14.62-14.94,22.73-22.28,8.92-8.07,16.4-18.81,16.08-31.3-.46-18.53,7.8-34.44,24.1-43.49,16.01-8.88,28.14-7.46,42.11-16.63,12.66-8.31,15.78-24.08,6.65-36.29-8.77-11.74-29.24-24.41-43.64-40.25-19.91-21.9-24.89-51.55-12.72-78.99,15.1-34.06,48.43-58.22,85.78-62.01,13.84-1.4,26.8.49,38.87,5.98s19.29,17.52,17.31,30.76c-1.79,11.96-9.68,22-21.54,24.85-6.91,1.66-13.75.48-20.63-1.13-14-3.27-28.66,1.39-36.91,12.96-7.64,10.72-6.45,23.55,1.9,33.36,13.05,15.33,30.16,23.47,46.36,44.58,19.38,25.25,21.4,58.39,5.39,86.11-17.29,29.92-46.77,41.91-79.13,49.07-7.42,1.64-14.21,3.66-20.87,7.36-10.46,5.81-17.28,16.44-17.22,28.69Z"/>
    <path d="M879.53,279.82c-3.69,9.79-6.31,19.32-8.16,29.2-3.95,21.14,33.8.97,60.74,5.39,13.52,2.22,21.53,14.1,18.94,27.52-2.34,12.13-9.86,21.78-21.59,27.07-24.12,10.87-50.5,17.03-77.13,16.9-13.69-.07-27.02-3.98-36.84-13.15s-13.55-23.28-12.7-36.91c1-16.17,4.19-31.07,8.24-46.82,11.06-43.04,29.96-101.63,49.35-141.34,7.55-15.46,19.7-26.59,35.84-32.81,26.16-10.08,63.05-15.61,89.8-6.47,11.42,3.9,17.91,14.42,15.81,26.5-2.94,16.84-19.71,23.52-34.88,26.11l-35.93,6.14c-5.47.93-11.15,3.68-13.77,8.74-6.17,11.91-11.02,23.97-15.6,36.48-.6,1.62,0,3.41.54,4.3,3.33,5.53,45.99-7.44,52.42,14.62,4.79,16.44-8.89,29.23-25.87,32.57l-37.59,7.4c-4.79.94-9.65,3.43-11.59,8.57Z"/>
    <path d="M1040.46,282.32c-2.51,8.62-10.05,29.57-4.74,34.64,7.32,6.99,39.62-6.62,61.01-2.09,7.98,1.69,15.09,6.69,17.53,14.72,3.09,10.17.13,21.31-7.12,29.09-5.85,6.28-13.12,10.42-21.26,13.5-20.37,7.71-41.5,12.38-63.34,13.65-26.78,1.55-54.34-9.1-57.09-39.02-1.2-13.12.07-25.95,3.14-39.23,11.72-50.72,27.58-99.86,47.75-147.79,9.44-22.43,20.09-36.8,43.23-45.46,24.28-9.08,58.42-12.7,82.76-3.27,12.91,5,18.13,18.9,12.27,31.49-4.14,8.91-12.41,15.07-22.31,16.92l-38.71,7.23c-5.75,1.07-11.87,3.39-14.82,8.73-6.48,11.76-10.9,24.09-15.51,36.66-.61,1.67.15,3.65.78,4.54,4.15,5.88,48.15-8.1,53.27,16.05,2.32,10.93-3.23,21.68-13.11,26.71-5.34,2.72-10.81,4.08-16.74,5.2l-34.44,6.53c-6.17,1.17-10.77,5.11-12.54,11.19Z"/>
    <path d="M572.11,327.19c3.79,11.66-1.11,23.06-9.54,30.67-6.27,5.65-13.25,8.96-21.33,11.71-23.49,7.98-66.94,16.17-90.96,12.18-14.93-2.48-25.42-13.09-27.48-28.01-1.33-9.65-.38-19.16,1.95-28.77,11.9-49.25,51.1-135.56,74.54-182.15,4.96-9.85,10.09-18.62,17.87-25.96,9.41-8.89,21.9-13.05,34.4-9.88s19.57,13.5,18.67,25.99c-.53,7.4-2.97,14.24-6.24,20.82l-19.61,39.46c-12.42,24.99-42.64,89.27-47.94,114-4.11,19.2,35.49,1.78,59.09,6.82,7.14,1.52,14.17,5.67,16.6,13.12Z"/>
    <path d="M367.69,378.58c-8.5,7.72-19.56,9.98-30.3,5.91-9.31-3.52-16.14-12.55-17.53-23.79-5.23-42.3,46.84-164.32,66.55-206.74,4.24-9.12,8.34-17.24,13.76-25.51,7.97-12.16,21.55-20.05,36.03-19.49,15.38.6,25.14,13.24,22.76,27.95-1.13,6.99-3.59,12.91-6.47,19.49-13.24,30.27-26.38,59.75-37.96,90.87-13.22,35.54-23.46,71.05-33.45,107.48-2.53,9.22-6.19,17.28-13.39,23.82Z"/>
    <path d="M374.31,130.4c1.47-18.77-.22-28.45-12.16-43.26-4.86-6.03-9.92-11.25-14-17.84-7.89-12.76-9.27-27.89-2.55-41.54,7.75-15.75,23.05-26.18,40.64-27.6,24.55-1.98,44.74,15.31,46.94,39.87,3.33,37.02-30.51,69.93-58.87,90.37Z"/>
    <path d="M326.58,82.32c-8.96-3.03-16.41-4.22-25.2-2.98-9.96,1.4-18.96-5.97-20.53-15.06-1.67-9.6,4.39-19.1,14.12-21.39,20.54-4.83,31.99,20.5,31.61,39.42Z"/>
  </g>
</svg>
